<svg xmlns="http://www.w3.org/2000/svg" width="56" height="16" fill="none" viewBox="0 0 56 16"><path fill="#F5F5F5" d="M6.05648 13.579H2.29352V1.04148C2.29327 0.929073 2.2477 0.821341 2.16678 0.741858C2.08585 0.662375 1.97617 0.617615 1.86172 0.617371H0.4318C0.317356 0.617615 0.20767 0.662375 0.126746 0.741858C0.045822 0.821341 0.000248522 0.929073 0 1.04148V15.257C0 15.3695 0.045494 15.4773 0.126472 15.5569C0.20745 15.6364 0.31728 15.6811 0.4318 15.6811H0.822206H0.849488H6.05553C6.11232 15.6811 6.16854 15.6701 6.22099 15.6487C6.27344 15.6273 6.32109 15.596 6.36119 15.5565C6.4013 15.5171 6.43309 15.4702 6.45473 15.4186C6.47638 15.3671 6.48746 15.3118 6.48733 15.2561V14.0031C6.48733 13.8908 6.44197 13.7831 6.36119 13.7036C6.28042 13.6241 6.17083 13.5793 6.05648 13.579Z"/><path fill="#F5F5F5" d="M20.6981 15.2015L14.1072 0.292998L14.0875 0.251417C14.0561 0.186648 14.0062 0.132244 13.9439 0.0948364C13.8816 0.0574293 13.8096 0.0386356 13.7366 0.0407489C13.6611 0.039488 13.5869 0.0600023 13.5232 0.0997485C13.4595 0.139495 13.4091 0.196726 13.3782 0.264353L13.3659 0.292998L6.77418 15.2015C6.63119 15.524 6.8485 15.681 7.08745 15.681H8.66225C8.90025 15.681 9.03854 15.4916 9.13261 15.2569L10.7385 11.5933H16.7385L18.3406 15.2569C18.4346 15.4916 18.5692 15.681 18.8109 15.681H20.3857C20.6228 15.681 20.8401 15.524 20.6981 15.2015ZM11.5861 9.65758L13.7356 4.76046L15.8843 9.65758H11.5861Z"/><path fill="#F5F5F5" d="M29.192 15.7125C29.2355 15.8007 29.304 15.8748 29.3892 15.9258C29.4745 15.9768 29.573 16.0025 29.6728 15.9998C29.7757 16.0013 29.8768 15.9732 29.9637 15.919C30.0506 15.8649 30.1195 15.787 30.1619 15.6949V15.6995L34.3012 7.06119L34.3059 7.06766L35.9992 15.2569C36.0594 15.4916 36.1563 15.681 36.4696 15.681H37.9861C38.225 15.681 38.4339 15.4611 38.337 15.0934L35.5872 0.346595C35.526 0.0767912 35.2974 0.00102542 35.0811 0.00102542C34.9806 -0.00450261 34.8808 0.0201131 34.795 0.0716044C34.7091 0.123096 34.6412 0.199025 34.6003 0.289308L34.5731 0.346595L29.6756 11.1766L24.7837 0.345671C24.7468 0.242941 24.6778 0.15426 24.5866 0.0922254C24.4954 0.0301905 24.3867 -0.00204469 24.2757 0.000100531C24.0594 0.000100531 23.8223 0.104511 23.7696 0.345671L21.0199 15.0925C20.9258 15.4621 21.1318 15.6801 21.3707 15.6801H22.8872C23.1977 15.6801 23.2946 15.4907 23.3576 15.256L25.0509 7.06673L29.1958 15.7115"/><path fill="#F5F5F5" d="M46.8373 15.7124C46.8807 15.8002 46.9487 15.8739 47.0334 15.9249C47.1181 15.9758 47.2159 16.0018 47.3152 15.9998C47.4181 16.0013 47.5192 15.9732 47.6061 15.919C47.693 15.8649 47.7619 15.787 47.8044 15.6949V15.6995L51.9437 7.06118V7.06764L53.637 15.2569C53.6972 15.4916 53.7932 15.681 54.1074 15.681H55.6248C55.8637 15.681 56.0726 15.4611 55.9757 15.0934L53.225 0.346582C53.1638 0.0767787 52.9362 0.00101289 52.7188 0.00101289C52.6186 -0.00432329 52.519 0.0203844 52.4333 0.071864C52.3476 0.123344 52.2799 0.199167 52.2391 0.289296L52.2118 0.346582L47.3209 11.1766L42.429 0.345659C42.3919 0.243007 42.3229 0.154405 42.2318 0.0923891C42.1406 0.0303734 42.0319 -0.00191669 41.921 8.80027e-05C41.7046 8.80027e-05 41.4676 0.104499 41.4149 0.345659L38.6651 15.0924C38.571 15.462 38.7771 15.6801 39.016 15.6801H40.5325C40.8429 15.6801 40.9398 15.4907 41.0029 15.256L42.6962 7.06672L46.8411 15.7115"/></svg>